<svg xmlns="http://www.w3.org/2000/svg" viewBox="0 0 46.36 55.74"><defs><style>.cls-1{fill:#ff48aa;}</style></defs><g id="Layer_2" data-name="Layer 2"><g id="Layer_2-2" data-name="Layer 2"><path class="cls-1" d="M11.93,38.88l1.94,16.27,2.92-17.3a4.28,4.28,0,0,1,2.36-3.27l9.16-3.51L20,27.87a6.14,6.14,0,0,1-3.4-4.7L14.26,11.61,12,22.92a6.56,6.56,0,0,1-3.63,5L.21,31.07,8.62,34.3A6,6,0,0,1,11.93,38.88Z"/><path class="cls-1" d="M11.93,38.88l2,16.26h-.17l2.44-15.59c.1-.65.19-1.28.31-2a5.79,5.79,0,0,1,.81-1.92A3.76,3.76,0,0,1,19,34.27l1.84-.74,7.34-2.88v.84l-6.26-2.36-1.57-.6a6.26,6.26,0,0,1-1.61-.78,6.59,6.59,0,0,1-2.13-2.87,9.3,9.3,0,0,1-.49-1.69l-.32-1.65-.64-3.28-1.28-6.57h.81l-1.39,6.54-.7,3.26a16,16,0,0,1-.89,3.27A6.68,6.68,0,0,1,9.6,27.47a5.4,5.4,0,0,1-1.53.78l-1.57.57L.23,31.14V31l7,2.71c.57.23,1.16.43,1.73.68a4.68,4.68,0,0,1,1.46,1.15A7.1,7.1,0,0,1,11.93,38.88Zm0,0a7.32,7.32,0,0,0-1.58-3.32,4.83,4.83,0,0,0-1.46-1.12c-.57-.24-1.16-.44-1.74-.66l-7-2.64L0,31.07.18,31l6.21-2.47,1.55-.61a5.22,5.22,0,0,0,1.42-.76,6.31,6.31,0,0,0,1.88-2.59A16.35,16.35,0,0,0,12,21.38l.61-3.28,1.22-6.57.39-2.06.42,2.06L16,18.08l.68,3.28L17,23a8.51,8.51,0,0,0,.46,1.51,5.55,5.55,0,0,0,1.82,2.43,5.08,5.08,0,0,0,1.38.68l1.55.61,6.24,2.42,1.1.43-1.1.41-7.38,2.77-1.85.68a3.12,3.12,0,0,0-1.34,1.11,4.79,4.79,0,0,0-.76,1.67c-.13.62-.24,1.29-.36,1.93L14,55.16l-.1.58-.07-.58Z"/><path class="cls-1" d="M34.16,20.38l1.29,10.87,2-11.56A2.84,2.84,0,0,1,39,17.51l6.12-2.35L39.53,13a4.05,4.05,0,0,1-2.27-3.14L35.71,2.16,34.2,9.72a4.34,4.34,0,0,1-2.42,3.35l-5.46,2.09L32,17.32A4,4,0,0,1,34.16,20.38Z"/><path class="cls-1" d="M34.16,20.38l1.38,10.86h-.17l1.56-10.43c.07-.44.12-.86.2-1.32a3.82,3.82,0,0,1,.55-1.32,2.61,2.61,0,0,1,1.14-1l1.22-.5c1.63-.67,3.27-1.3,4.9-1.94v.83L40.76,14l-1-.39a4.14,4.14,0,0,1-1.12-.55,4.45,4.45,0,0,1-1.47-2,5.56,5.56,0,0,1-.34-1.17l-.21-1.09-.42-2.2-.84-4.39h.81l-1,4.36-.48,2.18a11.49,11.49,0,0,1-.61,2.2,4.64,4.64,0,0,1-1.43,1.83,3.75,3.75,0,0,1-1,.52l-1.05.38-4.2,1.52v-.14L31,16.91l1.15.46a3.22,3.22,0,0,1,1,.77A4.86,4.86,0,0,1,34.16,20.38Zm0,0a4.86,4.86,0,0,0-1.07-2.21,2.92,2.92,0,0,0-1-.74c-.38-.16-.77-.3-1.16-.45L26.3,15.23l-.18-.06.18-.08,4.14-1.67a8.87,8.87,0,0,0,2-.93,4,4,0,0,0,1.22-1.7,10.25,10.25,0,0,0,.5-2.12l.4-2.2.79-4.39L35.68,0l.44,2.08L37,6.45l.46,2.19.23,1.1a5.52,5.52,0,0,0,.29,1,3.65,3.65,0,0,0,1.17,1.55,10.91,10.91,0,0,0,1.92.84l4.16,1.64,1.1.42-1.1.41c-1.64.62-3.28,1.24-4.94,1.83l-1.23.45a1.88,1.88,0,0,0-.85.69,3.23,3.23,0,0,0-.5,1.08c-.09.4-.16.86-.25,1.28l-2,10.36-.11.57-.06-.58Z"/></g></g></svg>
