<svg xmlns="http://www.w3.org/2000/svg" viewBox="0 0 29.57 46.27"><defs><style>.cls-1{fill:#ff48aa;}</style></defs><g id="Layer_2" data-name="Layer 2"><g id="Layer_2-2" data-name="Layer 2"><path class="cls-1" d="M11.93,29.42l1.94,16.26,2.92-17.3a4.28,4.28,0,0,1,2.36-3.26l9.16-3.52L20,18.4a6.14,6.14,0,0,1-3.4-4.7L14.26,2.14,12,13.45a6.54,6.54,0,0,1-3.63,5L.21,21.6l8.41,3.23A6,6,0,0,1,11.93,29.42Z"/><path class="cls-1" d="M11.93,29.42l2,16.25h-.17l2.44-15.59c.1-.65.19-1.28.31-2a5.79,5.79,0,0,1,.81-1.92A3.76,3.76,0,0,1,19,24.8l1.84-.74,7.34-2.88V22l-6.26-2.36-1.57-.6a6.26,6.26,0,0,1-1.61-.78,6.59,6.59,0,0,1-2.13-2.87,9.3,9.3,0,0,1-.49-1.69l-.32-1.65-.64-3.28L13.85,2.22h.81L13.27,8.76,12.57,12a16,16,0,0,1-.89,3.27A6.68,6.68,0,0,1,9.6,18a5.4,5.4,0,0,1-1.53.78l-1.57.57L.23,21.67v-.14l7,2.71c.57.23,1.16.43,1.73.69a4.51,4.51,0,0,1,1.46,1.14A7.09,7.09,0,0,1,11.93,29.42Zm0,0a7.27,7.27,0,0,0-1.58-3.32A4.53,4.53,0,0,0,8.89,25c-.57-.25-1.16-.45-1.74-.67l-7-2.64L0,21.6l.18-.07,6.21-2.46,1.55-.62a5.22,5.22,0,0,0,1.42-.76,6.25,6.25,0,0,0,1.88-2.59A16.35,16.35,0,0,0,12,11.91l.61-3.28,1.22-6.57L14.24,0l.42,2.06L16,8.61l.68,3.28L17,13.53A8.27,8.27,0,0,0,17.48,15a5.55,5.55,0,0,0,1.82,2.43,5.08,5.08,0,0,0,1.38.68l1.55.61,6.24,2.42,1.1.43-1.1.41-7.38,2.77-1.85.68a3.12,3.12,0,0,0-1.34,1.11,4.79,4.79,0,0,0-.76,1.67c-.13.62-.24,1.29-.36,1.93L14,45.69l-.1.58-.07-.58Z"/></g></g></svg>
