<svg xmlns="http://www.w3.org/2000/svg" viewBox="0 0 46.33 55.74"><defs><style>.cls-1{fill:#ff48aa;}</style></defs><g id="Layer_2" data-name="Layer 2"><g id="Layer_2-2" data-name="Layer 2"><g id="Layer_2-3" data-name="Layer 2"><g id="Layer_2-2-2" data-name="Layer 2-2"><path class="cls-1" d="M34.4,38.88,32.46,55.15l-2.92-17.3a4.28,4.28,0,0,0-2.36-3.27L18,31.07l8.31-3.2a6.14,6.14,0,0,0,3.4-4.7l2.34-11.56,2.26,11.31a6.56,6.56,0,0,0,3.63,5l8.16,3.15L37.71,34.3A6,6,0,0,0,34.4,38.88Z"/><path class="cls-1" d="M34.6,39.16l-2,16.09h.17L30.32,39.82c-.1-.64-.19-1.26-.31-2a5.69,5.69,0,0,0-.93-2.07,4.14,4.14,0,0,0-1.59-1.18l-1.82-.72L18.32,31v.83l6.27-2.34,1.57-.59a6.35,6.35,0,0,0,1.62-.77,6.57,6.57,0,0,0,2.13-2.84,9.2,9.2,0,0,0,.49-1.68L30.72,22l.64-3.25,1.29-6.5h-.82l1.4,6.47.7,3.23a15.88,15.88,0,0,0,.89,3.24,6.66,6.66,0,0,0,2.11,2.68,5.3,5.3,0,0,0,1.54.77l1.57.57,6.28,2.29v-.14l-7,2.68c-.57.23-1.16.43-1.74.68a4.74,4.74,0,0,0-1.46,1.14A6.93,6.93,0,0,0,34.6,39.16Zm-.2-.28A7.37,7.37,0,0,1,36,35.56a5,5,0,0,1,1.46-1.12c.57-.24,1.16-.44,1.74-.66l7-2.64.15-.07L46.15,31l-6.21-2.47-1.55-.61A5.12,5.12,0,0,1,37,27.16a6.29,6.29,0,0,1-1.88-2.59,16.65,16.65,0,0,1-.76-3.19l-.61-3.28L32.5,11.53l-.39-2.06-.42,2.06-1.36,6.55-.68,3.28L29.33,23a8.78,8.78,0,0,1-.46,1.51,5.61,5.61,0,0,1-1.82,2.43,5.07,5.07,0,0,1-1.38.68l-1.55.61-6.24,2.42-1.1.43,1.1.41,7.38,2.77,1.85.68a3.15,3.15,0,0,1,1.34,1.11,4.69,4.69,0,0,1,.76,1.67c.13.62.24,1.29.36,1.93l2.76,15.51.1.58.07-.58Z"/><path class="cls-1" d="M12.17,20.38,10.88,31.25l-2-11.56a2.83,2.83,0,0,0-1.55-2.18L1.21,15.16,6.8,13A4,4,0,0,0,9.07,9.86l1.55-7.7,1.51,7.56a4.36,4.36,0,0,0,2.42,3.35L20,15.16l-5.68,2.16A4,4,0,0,0,12.17,20.38Z"/><path class="cls-1" d="M12.37,20.4,11,31.25h.18L9.53,20.83c-.07-.44-.12-.86-.21-1.32a3.71,3.71,0,0,0-.56-1.31,2.65,2.65,0,0,0-1.17-1l-1.25-.5C4.67,16,3,15.4,1.32,14.76v.83L5.6,14l1-.39a4.2,4.2,0,0,0,1.15-.55,4.38,4.38,0,0,0,1.5-2,5.11,5.11,0,0,0,.35-1.17l.22-1.08.43-2.2.86-4.39h-.83l1,4.36.49,2.18A11.92,11.92,0,0,0,12.45,11,4.68,4.68,0,0,0,14,12.9a4.18,4.18,0,0,0,.88.42l1.11.39,4.3,1.52v-.14l-4.71,1.85-1.18.46a3.24,3.24,0,0,0-1,.77A4.76,4.76,0,0,0,12.37,20.4Zm-.2,0a4.81,4.81,0,0,1,1.07-2.21,2.9,2.9,0,0,1,1-.74c.38-.16.77-.3,1.16-.45L20,15.23l.18-.06L20,15.09l-4.14-1.67a9.32,9.32,0,0,1-2-.93,4.05,4.05,0,0,1-1.22-1.7,10.37,10.37,0,0,1-.5-2.12l-.4-2.2L11,2.08,10.65,0l-.44,2.08L9.33,6.45,8.87,8.64l-.23,1.1a5,5,0,0,1-.29,1,3.66,3.66,0,0,1-1.17,1.55,11,11,0,0,1-1.92.84L1.1,14.77,0,15.19l1.1.41c1.64.62,3.28,1.24,4.94,1.83l1.23.45a1.86,1.86,0,0,1,.85.69,3.32,3.32,0,0,1,.5,1.08c.09.4.16.86.25,1.28l2,10.36.11.57.06-.58Z"/></g></g></g></g></svg>
