<svg xmlns="http://www.w3.org/2000/svg" viewBox="0 0 47.89 71.27"><defs><style>.cls-1{fill:#ff48aa;}</style></defs><g id="Layer_2" data-name="Layer 2"><g id="Layer_2-2" data-name="Layer 2"><path class="cls-1" d="M35.69,59.78,37,70.65l1.95-11.56a2.84,2.84,0,0,1,1.58-2.18l6.12-2.35-5.58-2.14a4.1,4.1,0,0,1-2.27-3.14l-1.54-7.72-1.51,7.56a4.38,4.38,0,0,1-2.42,3.35l-5.46,2.09,5.62,2.16A4,4,0,0,1,35.69,59.78Z"/><path class="cls-1" d="M35.69,59.78l1.38,10.86H36.9l1.56-10.43c.07-.44.12-.86.21-1.32a3.64,3.64,0,0,1,.55-1.32,2.57,2.57,0,0,1,1.13-1l1.23-.5c1.62-.67,3.26-1.3,4.9-2V55l-4.19-1.57-1-.39a4.09,4.09,0,0,1-1.11-.55,4.4,4.4,0,0,1-1.48-2,6.19,6.19,0,0,1-.33-1.17l-.21-1.09L37.68,46l-.83-4.39h.8l-1,4.36-.48,2.18a10.81,10.81,0,0,1-.61,2.2,4.62,4.62,0,0,1-1.42,1.83,3.75,3.75,0,0,1-1,.52l-1,.38-4.2,1.52v-.14l4.63,1.82,1.16.46a3.22,3.22,0,0,1,1,.77A4.84,4.84,0,0,1,35.69,59.78Zm0,0a4.84,4.84,0,0,0-1.06-2.21,2.92,2.92,0,0,0-1-.74c-.38-.16-.78-.3-1.16-.45l-4.67-1.75-.18-.06.18-.08L32,52.82a9,9,0,0,0,2-.93,4.1,4.1,0,0,0,1.22-1.7,10.94,10.94,0,0,0,.5-2.12l.39-2.2.8-4.39.37-2.08.43,2.08.92,4.37L39,48l.23,1.1a5.55,5.55,0,0,0,.3,1,3.72,3.72,0,0,0,1.16,1.55,11,11,0,0,0,1.93.84l4.16,1.63,1.09.43L46.8,55c-1.65.62-3.29,1.24-4.94,1.83l-1.23.45a2,2,0,0,0-.86.69A3.21,3.21,0,0,0,39.28,59c-.09.4-.17.86-.25,1.28l-2,10.35-.1.58-.07-.58Z"/><path class="cls-1" d="M18.66,45.07l3.05,25.6,4.61-27.23A6.7,6.7,0,0,1,30,38.3l14.42-5.53-13.14-5c-2.59-1-4.62-3.81-5.34-7.41L22.33,2.13l-3.56,17.8c-.77,3.84-2.93,6.84-5.71,7.91L.21,32.77l13.24,5.08C16,38.82,18,41.56,18.66,45.07Z"/><path class="cls-1" d="M18.66,45.07,21.8,70.66h-.17l3.94-24.52c.18-1,.31-2,.52-3.07a8.32,8.32,0,0,1,1.25-3A5.74,5.74,0,0,1,29.82,38l2.9-1.14,11.57-4.5v.84l-9.85-3.75L32,28.51a9.27,9.27,0,0,1-2.47-1.21,9.91,9.91,0,0,1-3.27-4.39,14.16,14.16,0,0,1-.76-2.61L25,17.71l-1-5.16-2-10.34h.81l-2.14,10.3-1.08,5.15a24.88,24.88,0,0,1-1.37,5.12A10.45,10.45,0,0,1,14.93,27a8.49,8.49,0,0,1-2.38,1.21l-2.46.92L.23,32.84V32.7l10.94,4.23c.91.36,1.83.69,2.73,1.08a7.51,7.51,0,0,1,2.31,1.8A11.44,11.44,0,0,1,18.66,45.07Zm0,0a11.37,11.37,0,0,0-2.48-5.24,7.5,7.5,0,0,0-2.3-1.77c-.9-.38-1.82-.7-2.73-1.06l-11-4.16L0,32.77l.18-.07L10,28.85l2.45-1a7.71,7.71,0,0,0,2.27-1.2,10,10,0,0,0,3-4.1A24.73,24.73,0,0,0,19,17.54l1-5.16L21.92,2l.4-2,.41,2,2.11,10.33,1.05,5.16.52,2.58a12.62,12.62,0,0,0,.73,2.43,9.11,9.11,0,0,0,2.95,3.95,8.21,8.21,0,0,0,2.24,1.1l2.46.95,9.82,3.81,1.09.42-1.09.42L33,37.58l-2.9,1.09a5,5,0,0,0-2.21,1.82A7.76,7.76,0,0,0,26.7,43.2c-.21,1-.37,2-.56,3L21.8,70.68l-.11.59-.07-.59Z"/></g></g></svg>
