<svg xmlns="http://www.w3.org/2000/svg" viewBox="0 0 45.7 71.27"><defs><style>.cls-1{fill:#ff48aa;}</style></defs><g id="Layer_2" data-name="Layer 2"><g id="Layer_2-2" data-name="Layer 2"><path class="cls-1" d="M18.66,45.07l3.05,25.6,4.61-27.23A6.7,6.7,0,0,1,30,38.3l14.42-5.53-13.14-5c-2.59-1-4.62-3.81-5.34-7.41L22.33,2.13l-3.56,17.8c-.77,3.84-2.93,6.84-5.71,7.91L.21,32.77l13.24,5.08C16,38.82,18,41.56,18.66,45.07Z"/><path class="cls-1" d="M18.66,45.07,21.8,70.66h-.17l3.94-24.52c.18-1,.31-2,.52-3.07a8.32,8.32,0,0,1,1.25-3A5.74,5.74,0,0,1,29.82,38l2.9-1.14,11.57-4.5v.84l-9.85-3.75L32,28.51a9.27,9.27,0,0,1-2.47-1.21,9.91,9.91,0,0,1-3.27-4.39,14.16,14.16,0,0,1-.76-2.61L25,17.71l-1-5.16-2-10.34h.81l-2.14,10.3-1.08,5.15a24.88,24.88,0,0,1-1.37,5.12A10.45,10.45,0,0,1,14.93,27a8.49,8.49,0,0,1-2.38,1.21l-2.46.92L.23,32.84V32.7l10.94,4.23c.91.36,1.83.69,2.73,1.08a7.51,7.51,0,0,1,2.31,1.8A11.44,11.44,0,0,1,18.66,45.07Zm0,0a11.37,11.37,0,0,0-2.48-5.24,7.5,7.5,0,0,0-2.3-1.77c-.9-.38-1.82-.7-2.73-1.06l-11-4.16L0,32.77l.18-.07L10,28.85l2.45-1a7.71,7.71,0,0,0,2.27-1.2,10,10,0,0,0,3-4.1A24.73,24.73,0,0,0,19,17.54l1-5.16L21.92,2l.4-2,.41,2,2.11,10.33,1.05,5.16.52,2.58a12.62,12.62,0,0,0,.73,2.43,9.11,9.11,0,0,0,2.95,3.95,8.21,8.21,0,0,0,2.24,1.1l2.46.95,9.82,3.81,1.09.42-1.09.42L33,37.58l-2.9,1.09a5,5,0,0,0-2.21,1.82A7.76,7.76,0,0,0,26.7,43.2c-.21,1-.37,2-.56,3L21.8,70.68l-.11.59-.07-.59Z"/></g></g></svg>
