<svg xmlns="http://www.w3.org/2000/svg" viewBox="0 0 48.07 71.27"><defs><style>.cls-1{fill:#ff48aa;}</style></defs><g id="Layer_2" data-name="Layer 2"><g id="Layer_2-2" data-name="Layer 2"><g id="Layer_2-3" data-name="Layer 2"><g id="Layer_2-2-2" data-name="Layer 2-2"><path class="cls-1" d="M12.18,59.78,10.87,70.65,8.92,59.09a2.83,2.83,0,0,0-1.58-2.18L1.22,54.56,6.8,52.42a4.1,4.1,0,0,0,2.27-3.14l1.54-7.72,1.51,7.56a4.38,4.38,0,0,0,2.42,3.35L20,54.56l-5.62,2.16A4,4,0,0,0,12.18,59.78Z"/><path class="cls-1" d="M12.13,59.67,10.71,70.52h.18L9.29,60.1c-.07-.44-.12-.85-.22-1.31a3.36,3.36,0,0,0-.56-1.32,2.57,2.57,0,0,0-1.16-1L6.09,56c-1.66-.67-3.34-1.3-5-2v.93l4.29-1.57,1-.39a4.14,4.14,0,0,0,1.14-.55,4.33,4.33,0,0,0,1.51-2,5.31,5.31,0,0,0,.34-1.16l.22-1.09.49-2.23.85-4.39h-.82l1,4.36.5,2.18a9.78,9.78,0,0,0,.62,2.19,4.64,4.64,0,0,0,1.46,1.83,3.93,3.93,0,0,0,1,.52l1,.38,4.3,1.52v-.14l-4.74,1.82-1.19.46a3.39,3.39,0,0,0-1,.77A4.78,4.78,0,0,0,12.13,59.67Zm0,.11a4.79,4.79,0,0,1,1.06-2.21,2.9,2.9,0,0,1,1-.74c.38-.16.78-.3,1.16-.45l4.67-1.75.18-.06-.18-.08-4.2-1.67a9.32,9.32,0,0,1-2-.93,4.05,4.05,0,0,1-1.22-1.7,11.07,11.07,0,0,1-.5-2.12l-.39-2.2L11,41.48l-.37-2.08-.43,2.08-.92,4.37L8.87,48l-.23,1.1a5.76,5.76,0,0,1-.3,1,3.7,3.7,0,0,1-1.16,1.55,11.39,11.39,0,0,1-1.93.84L1.09,54.12,0,54.55,1.07,55c1.65.62,3.29,1.24,4.94,1.83l1.23.45A1.93,1.93,0,0,1,8.1,58a3.26,3.26,0,0,1,.49,1c.09.4.17.86.25,1.28l2,10.35.1.58.07-.58Z"/><path class="cls-1" d="M29.21,45.07l-3.05,25.6L21.55,43.44a6.7,6.7,0,0,0-3.68-5.14L3.45,32.77l13.14-5c2.59-1,4.62-3.81,5.34-7.41L25.54,2.13l3.56,17.8c.77,3.84,2.93,6.84,5.71,7.91l12.85,4.93L34.42,37.85C31.87,38.82,29.87,41.56,29.21,45.07Z"/><path class="cls-1" d="M29.67,45.1,26.53,70.52h.17L22.77,46.16c-.18-1-.31-2-.52-3a8.41,8.41,0,0,0-1.25-3,5.71,5.71,0,0,0-2.48-2.05L15.62,37,4.07,32.48v.83l9.84-3.73,2.43-.93a9.42,9.42,0,0,0,2.47-1.2,9.88,9.88,0,0,0,3.27-4.36,13.81,13.81,0,0,0,.75-2.6l.5-2.57,1-5.12,2-10.28h-.81l2.14,10.24,1.08,5.11A24.24,24.24,0,0,0,30.11,23a10.36,10.36,0,0,0,3.28,4.19,8.46,8.46,0,0,0,2.38,1.2l2.45.92L48.07,33v-.14L37.15,37c-.91.35-1.83.68-2.73,1.07a7.6,7.6,0,0,0-2.31,1.79A11.33,11.33,0,0,0,29.67,45.1Zm-.46,0a11.32,11.32,0,0,1,2.48-5.24A7.5,7.5,0,0,1,34,38.06c.9-.38,1.82-.7,2.73-1.06l11-4.16.15-.07-.18-.07-9.82-3.85-2.45-1a7.73,7.73,0,0,1-2.27-1.2,10,10,0,0,1-3-4.1,24.73,24.73,0,0,1-1.28-5l-1-5.16L26,2l-.4-2-.41,2L23,12.33,22,17.49l-.52,2.58a12.83,12.83,0,0,1-.73,2.43,9.09,9.09,0,0,1-2.95,3.95,8.19,8.19,0,0,1-2.24,1.1l-2.46.95L3.26,32.31l-1.09.42,1.09.42,11.61,4.43,2.9,1.09A5,5,0,0,1,20,40.49a7.74,7.74,0,0,1,1.19,2.71c.21,1,.37,2,.56,3l4.34,24.48.11.59.07-.59Z"/></g></g></g></g></svg>
